<?xml version="1.0" encoding="UTF-8" standalone="no"?>
<svg
   xmlns:dc="http://purl.org/dc/elements/1.1/"
   xmlns:cc="http://creativecommons.org/ns#"
   xmlns:rdf="http://www.w3.org/1999/02/22-rdf-syntax-ns#"
   xmlns:svg="http://www.w3.org/2000/svg"
   xmlns="http://www.w3.org/2000/svg"
   xmlns:sodipodi="http://sodipodi.sourceforge.net/DTD/sodipodi-0.dtd"
   xmlns:inkscape="http://www.inkscape.org/namespaces/inkscape"
   sodipodi:docname="socialmedia-card.svg"
   inkscape:version="1.0 (4035a4fb49, 2020-05-01)"
   id="svg8"
   version="1.1"
   viewBox="0 0 1024 512"
   height="512mm"
   width="1024mm">
  <defs
     id="defs2" />
  <sodipodi:namedview
     inkscape:window-maximized="1"
     inkscape:window-y="-6"
     inkscape:window-x="-6"
     inkscape:window-height="1018"
     inkscape:window-width="1920"
     showgrid="false"
     inkscape:document-rotation="0"
     inkscape:current-layer="layer1"
     inkscape:document-units="mm"
     inkscape:cy="1116.1905"
     inkscape:cx="1913.7451"
     inkscape:zoom="0.35"
     inkscape:pageshadow="2"
     inkscape:pageopacity="0"
     borderopacity="1.0"
     bordercolor="#666666"
     pagecolor="#f9fafb"
     id="base" />
  <metadata
     id="metadata5">
    <rdf:RDF>
      <cc:Work
         rdf:about="">
        <dc:format>image/svg+xml</dc:format>
        <dc:type
           rdf:resource="http://purl.org/dc/dcmitype/StillImage" />
        <dc:title></dc:title>
      </cc:Work>
    </rdf:RDF>
  </metadata>
  <g
     id="layer1"
     inkscape:groupmode="layer"
     inkscape:label="Layer 1">
    <g
       transform="matrix(0.42522323,0,0,0.42522323,135.81911,-32.775941)"
       id="g114">
      <path
         id="path10"
         d="m -153.49658,130.89622 c -0.31115,-1.44539 -1.84875,-2.9808 -3.29433,-3.28983 -8.49233,-1.81592 -15.14713,-1.81592 -21.77336,-1.81592 -27.31029,0 -43.688,14.6058 -55.9144,33.86667 h -27.56958 c -4.31192,0 -9.4189,3.15489 -11.34772,7.01093 l -13.07597,26.14057 a 7.5131083,7.5131083 0 0 0 -0.66569,2.83183 6.3521167,6.3521167 0 0 0 6.35106,6.35 h 27.50344 a 25.401852,25.401852 0 0 1 25.4037,25.4 v 27.51667 a 6.3521167,6.3521167 0 0 0 6.35106,6.35 7.553325,7.553325 0 0 0 2.83236,-0.66559 l 26.12681,-13.072 c 3.8526,-1.92755 7.00485,-7.0284 7.00485,-11.33581 v -27.63308 c 19.20584,-12.25338 33.87196,-28.68348 33.87196,-55.8509 0.0248,-6.65427 0.0248,-13.3088 -1.80377,-21.80325 z m -32.04369,39.34354 a 10.583333,10.583333 0 1 1 10.58492,-10.58333 10.588625,10.588625 0 0 1 -10.58492,10.58333 z m -92.1729,48.70185 c -6.84133,6.84054 -10.22218,23.95194 -9.28926,42.15871 18.28694,0.94154 35.35098,-2.47428 42.16665,-9.2882 10.6598,-10.65715 11.34454,-24.86713 1.66991,-34.54135 -9.67475,-9.6729 -23.88737,-8.98816 -34.54664,1.66968 z m 21.59873,22.2332 c -2.2715,2.27119 -7.95946,3.40969 -14.0544,3.09536 -0.31062,-6.06848 0.81608,-11.77184 3.09642,-14.05175 3.55282,-3.5523 8.28966,-3.78064 11.51413,-0.55656 3.22448,3.22475 2.99667,7.96079 -0.55612,11.51308 z"
         style="stroke-width:0.264583" />
      <g
         id="g36"
         aria-label="StellarAdmin"
         transform="matrix(0.26458333,0,0,0.26458333,-287.15351,125.79055)">
        <path
           id="path12"
           d="m 869.93,336.78 q 0,29.883 -11.133,52.441 -11.133,22.559 -30.176,37.793 -19.043,14.941 -44.531,22.559 -25.488,7.6172 -54.492,7.6172 -19.629,0 -36.621,-3.2227 -16.699,-3.2226 -29.59,-7.6172 -12.891,-4.6875 -21.68,-9.668 -8.4961,-4.9805 -12.305,-8.7891 -3.8086,-3.8086 -5.5664,-10.84 -1.4648,-7.3242 -1.4648,-20.801 0,-9.082 0.58593,-15.234 0.58594,-6.1523 1.7578,-9.9609 1.4648,-3.8086 3.5156,-5.2734 2.3438,-1.7578 5.2734,-1.7578 4.1016,0 11.426,4.9805 7.6172,4.6875 19.336,10.547 11.719,5.8594 27.832,10.84 16.406,4.6875 37.793,4.6875 14.062,0 25.195,-3.2226 11.133,-3.5156 18.75,-9.668 7.9102,-6.1524 12.012,-15.234 4.1018,-9.0816 4.1016,-20.215 0,-12.891 -7.0312,-21.973 -7.0312,-9.375 -18.457,-16.406 -11.133,-7.3242 -25.488,-13.477 -14.355,-6.4453 -29.59,-13.477 -15.234,-7.0312 -29.59,-15.82 -14.355,-9.082 -25.781,-21.387 -11.133,-12.598 -18.164,-29.59 -7.0312,-16.992 -7.0312,-40.723 0,-27.246 9.9609,-47.754 10.254,-20.801 27.246,-34.277 17.285,-13.77 40.43,-20.508 23.438,-6.7383 49.512,-6.7383 13.477,0 26.953,2.0508 13.476,2.0508 25.195,5.5664 11.719,3.5156 20.801,7.9102 9.082,4.3945 12.012,7.3242 2.9297,2.9297 3.8086,4.9805 1.1719,2.0508 1.7578,5.5664 0.87891,3.2227 1.1719,8.4961 0.29297,4.9805 0.29297,12.598 0,8.4961 -0.58593,14.355 -0.29297,5.8594 -1.4648,9.668 -0.8789,3.8086 -2.9297,5.5664 -1.7578,1.7578 -4.9805,1.7578 -3.2227,0 -10.254,-4.1016 -7.0312,-4.1016 -17.285,-8.7891 -10.254,-4.9805 -23.73,-8.7891 -13.477,-4.1016 -29.59,-4.1016 -12.598,0 -21.973,3.2226 -9.375,2.9297 -15.82,8.4961 -6.1523,5.2734 -9.375,12.891 -2.9297,7.6172 -2.9297,16.113 0,12.598 6.7383,21.973 7.0312,9.082 18.457,16.406 11.719,7.0312 26.367,13.477 14.648,6.1524 29.883,13.184 15.234,7.0312 29.883,16.113 14.648,8.7891 26.074,21.387 11.426,12.305 18.457,29.297 7.0312,16.699 7.0312,39.551 z" />
        <path
           id="path14"
           d="m 1079.1,414.71 q 0,12.891 -1.7578,19.922 -1.4648,6.7383 -4.1015,9.668 -2.6368,2.6367 -7.9102,4.9805 -4.9805,2.0508 -12.012,3.5156 -6.7383,1.7578 -14.941,2.6367 -7.9102,0.8789 -16.113,0.8789 -21.973,0 -38.086,-5.5664 -16.113,-5.5664 -26.66,-16.992 -10.547,-11.719 -15.527,-29.297 -4.9805,-17.578 -4.9805,-41.602 v -133.89 h -31.348 q -5.5664,0 -8.4961,-6.7383 -2.9297,-7.0312 -2.9297,-23.145 0,-8.4961 0.58593,-14.355 0.87891,-5.8594 2.3438,-9.082 1.4648,-3.5156 3.5156,-4.9805 2.3438,-1.4648 5.2734,-1.4648 h 31.055 v -58.301 q 0,-2.9297 1.4648,-5.2734 1.7578,-2.3438 5.8594,-3.8086 4.3945,-1.7578 11.426,-2.3437 7.3242,-0.87891 17.871,-0.87891 10.84,0 17.871,0.87891 7.3242,0.58594 11.42597,2.3437 4.1015,1.4648 5.8593,3.8086 1.7578,2.3438 1.7578,5.2734 v 58.301 h 56.836 q 2.9297,0 4.9804,1.4648 2.3438,1.4648 3.8086,4.9805 1.4649,3.2227 2.0508,9.082 0.8789,5.8594 0.8789,14.355 0,16.113 -2.9297,23.145 -2.9296,6.7383 -8.4961,6.7383 h -57.129 v 122.75 q 0,21.387 6.7383,32.227 6.7383,10.547 24.024,10.547 5.8593,0 10.547,-0.87891 4.6875,-1.1719 8.2032,-2.3438 3.8086,-1.4648 6.1523,-2.3438 2.6367,-1.1719 4.6875,-1.1719 1.7578,0 3.2227,1.1719 1.7578,0.87891 2.6367,4.1016 0.8789,2.9297 1.4648,8.2031 0.8789,5.2734 0.8789,13.477 z" />
        <path
           id="path16"
           d="m 1367.4,302.21 q 0,13.477 -6.1524,19.922 -5.8593,6.4453 -16.406,6.4453 h -159.08 q 0,16.699 3.8085,30.469 4.1016,13.477 12.598,23.145 8.7891,9.375 22.266,14.355 13.77,4.9805 32.812,4.9805 19.336,0 33.984,-2.6367 14.648,-2.9297 25.195,-6.1524 10.84,-3.5156 17.871,-6.1523 7.0313,-2.9297 11.426,-2.9297 2.6367,0 4.3945,1.1719 1.7578,0.8789 2.9297,3.5156 1.1719,2.6367 1.4649,7.6172 0.5859,4.6875 0.5859,12.012 0,6.4453 -0.293,11.133 -0.2929,4.3945 -0.8789,7.6172 -0.5859,3.2226 -1.7578,5.5664 -1.1719,2.0508 -3.2227,4.1016 -1.7578,2.0508 -10.254,5.5664 -8.4961,3.5156 -21.68,7.0312 -13.184,3.2227 -30.176,5.5664 -16.992,2.6367 -36.328,2.6367 -34.863,0 -61.23,-8.7891 -26.074,-8.7891 -43.652,-26.66 -17.578,-17.871 -26.367,-45.117 -8.496,-27.246 -8.496,-63.867 0,-34.863 9.082,-62.695 9.082,-28.125 26.367,-47.461 17.285,-19.629 41.894,-29.883 24.902,-10.254 55.957,-10.254 32.812,0 55.957,9.668 23.438,9.668 38.379,26.953 14.941,16.992 21.973,40.43 7.0313,23.438 7.0313,50.977 z m -71.484,-21.094 q 0.8789,-31.055 -12.598,-48.633 -13.184,-17.871 -41.016,-17.871 -14.062,0 -24.609,5.2734 -10.254,5.2734 -17.285,14.355 -6.7383,8.7891 -10.547,21.094 -3.5156,12.012 -4.1015,25.781 z" />
        <path
           id="path18"
           d="m 1502.2,440.5 q 0,2.9297 -1.7578,5.2734 -1.7578,2.0508 -6.1524,3.5156 -4.1015,1.4648 -11.133,2.0508 -7.0312,0.87891 -17.871,0.87891 -10.84,0 -17.871,-0.87891 -7.0312,-0.58593 -11.426,-2.0508 -4.1016,-1.4648 -5.8594,-3.5156 -1.7578,-2.3438 -1.7578,-5.2734 V 55.25 q 0,-2.9297 1.7578,-5.2734 1.7578,-2.3437 5.8594,-3.8086 4.3945,-1.7578 11.426,-2.6367 7.0313,-0.87891 17.871,-0.87891 10.84,0 17.871,0.87891 7.0313,0.87891 11.133,2.6367 4.3946,1.4648 6.1524,3.8086 1.7578,2.3438 1.7578,5.2734 z" />
        <path
           id="path20"
           d="m 1649.8,440.5 q 0,2.9297 -1.7579,5.2734 -1.7578,2.0508 -6.1523,3.5156 -4.1016,1.4648 -11.133,2.0508 -7.0313,0.87891 -17.871,0.87891 -10.84,0 -17.871,-0.87891 -7.0313,-0.58593 -11.426,-2.0508 -4.1015,-1.4648 -5.8594,-3.5156 -1.7578,-2.3438 -1.7578,-5.2734 V 55.25 q 0,-2.9297 1.7578,-5.2734 1.7579,-2.3438 5.8594,-3.8086 4.3945,-1.7578 11.426,-2.6367 7.0312,-0.87891 17.871,-0.87891 10.84,0 17.871,0.87891 7.0312,0.87891 11.133,2.6367 4.3945,1.4648 6.1523,3.8086 1.7579,2.3438 1.7579,5.2734 z" />
        <path
           id="path22"
           d="m 1946.3,441.37 q 0,4.1016 -2.9297,6.4453 -2.9296,2.3438 -9.375,3.2226 -6.1523,1.1719 -18.457,1.1719 -13.184,0 -19.336,-1.1719 -5.8594,-0.8789 -8.4961,-3.2226 -2.3438,-2.3438 -2.3438,-6.4453 v -20.801 q -16.113,17.285 -36.914,26.953 -20.508,9.668 -45.703,9.668 -20.801,0 -38.379,-5.5664 -17.285,-5.2734 -30.176,-15.82 -12.598,-10.84 -19.629,-26.66 -7.0312,-15.82 -7.0312,-36.914 0,-22.852 8.7891,-39.551 9.082,-16.992 26.66,-27.832 17.871,-11.133 44.238,-16.406 26.367,-5.273 61.23,-5.2734 h 25.488 v -15.82 q 0,-12.305 -2.6367,-21.387 -2.3437,-9.375 -8.2031,-15.527 -5.5664,-6.1524 -15.234,-9.082 -9.375,-2.9297 -23.438,-2.9297 -18.457,0 -33.105,4.1016 -14.356,4.1016 -25.488,9.082 -11.132,4.9804 -18.75,9.082 -7.3242,4.1016 -12.012,4.1016 -3.2227,0 -5.8594,-2.0508 -2.3438,-2.0508 -4.1016,-5.8594 -1.4648,-3.8086 -2.3437,-9.375 -0.8789,-5.5664 -0.8789,-12.305 0,-9.082 1.4648,-14.355 1.4649,-5.2734 5.5664,-9.375 4.1016,-4.3945 14.356,-9.375 10.254,-5.2734 24.023,-9.668 13.77,-4.3945 29.883,-7.0312 16.406,-2.9297 33.691,-2.9297 30.762,0 52.441,6.1523 21.973,5.8594 36.035,18.457 14.062,12.305 20.508,31.934 6.4453,19.629 6.4453,46.582 z m -72.363,-111.91 h -28.125 q -17.871,0 -30.469,2.6367 -12.598,2.6367 -20.508,7.9102 -7.9102,5.2734 -11.719,12.891 -3.5156,7.3242 -3.5156,16.992 0,16.406 10.254,25.781 10.547,9.375 29.004,9.375 15.527,0 28.418,-7.9102 13.184,-7.9102 26.66,-23.145 z" />
        <path
           id="path24"
           d="m 2188,203.48 q 0,10.547 -0.5859,17.285 -0.5859,6.738 -1.7578,10.547 -1.1719,3.8086 -3.2227,5.2734 -1.7578,1.4648 -4.6875,1.4648 -2.3437,0 -5.2734,-0.8789 -2.9297,-1.1719 -6.7383,-2.3438 -3.5156,-1.1719 -7.9101,-2.0508 -4.3946,-1.1719 -9.668,-1.1719 -6.1523,0 -12.305,2.6367 -6.1523,2.3438 -12.891,7.6172 -6.4453,5.2734 -13.77,14.062 -7.0313,8.7891 -15.234,21.68 v 162.89 q 0,2.9297 -1.7578,5.2734 -1.7578,2.0508 -6.1524,3.5156 -4.1015,1.4648 -11.133,2.0508 -7.0312,0.87891 -17.871,0.87891 -10.84,0 -17.871,-0.87891 -7.0312,-0.58593 -11.426,-2.0508 -4.1015,-1.4648 -5.8593,-3.5156 -1.7578,-2.3438 -1.7578,-5.2734 v -261.33 q 0,-2.9297 1.4648,-4.9805 1.4648,-2.3438 5.2734,-3.8086 3.8086,-1.4648 9.668,-2.0508 6.1523,-0.87891 15.234,-0.87891 9.375,0 15.527,0.87891 6.1524,0.58594 9.375,2.0508 3.5156,1.4648 4.9805,3.8086 1.4648,2.0508 1.4648,4.9805 v 32.52 q 10.254,-14.648 19.336,-24.023 9.082,-9.668 17.285,-15.234 8.2032,-5.5664 16.406,-7.6172 8.2031,-2.3438 16.406,-2.3438 3.8086,0 8.2032,0.58593 4.3945,0.29297 9.082,1.4648 4.6875,0.8789 8.2031,2.3438 3.5156,1.1719 4.9805,2.6367 1.7578,1.4648 2.3437,3.2226 0.8789,1.7578 1.4649,4.9805 0.5859,2.9297 0.8789,9.082 0.2929,6.1524 0.2929,16.699 z" />
        <path
           id="path26"
           d="m 2548.3,421.75 q 3.5156,10.547 4.3945,16.699 0.8789,6.1523 -2.3437,9.375 -3.2227,2.9297 -11.426,3.5156 -8.2031,0.87891 -22.559,0.87891 -14.941,0 -23.438,-0.58594 -8.2031,-0.29297 -12.598,-1.4648 -4.3946,-1.4648 -6.1524,-3.8086 -1.7578,-2.3438 -2.9297,-6.1523 l -25.488,-76.172 h -142.38 l -24.023,74.121 q -1.1719,4.1016 -3.2227,7.0312 -1.7578,2.6367 -6.1523,4.3945 -4.1016,1.4648 -12.012,2.0508 -7.6172,0.58594 -20.215,0.58594 -13.476,0 -21.094,-0.87891 -7.6172,-0.8789 -10.547,-4.1016 -2.9297,-3.5156 -2.0508,-9.668 0.8789,-6.1523 4.3946,-16.406 l 116.89,-336.33 q 1.7578,-4.9805 4.1016,-7.9102 2.3437,-3.2227 7.3242,-4.6875 5.2734,-1.7578 14.355,-2.0508 9.0821,-0.58594 24.024,-0.58594 17.285,0 27.539,0.58594 10.254,0.29297 15.82,2.0508 5.8593,1.4648 8.2031,4.6875 2.6367,3.2227 4.3945,8.7891 z M 2374.28,143.72 h -0.293 l -53.613,161.13 h 107.52 z" />
        <path
           id="path28"
           d="m 2844.5,440.5 q 0,3.2227 -1.4648,5.5664 -1.4649,2.0508 -4.9805,3.5156 -3.5156,1.4648 -9.668,2.0508 -5.8593,0.58594 -14.648,0.58594 -9.375,0 -15.234,-0.58594 -5.859,-0.58594 -9.6679,-2.0508 -3.5157,-1.4648 -5.2735,-3.5156 -1.4648,-2.3438 -1.4648,-5.5664 v -29.004 q -20.215,21.68 -42.48,33.691 -21.973,12.012 -48.926,12.012 -29.883,0 -50.684,-11.426 -20.508,-11.719 -33.691,-31.348 -12.891,-19.629 -18.75,-45.703 -5.8594,-26.367 -5.8594,-55.371 0,-34.863 7.3243,-62.695 7.6172,-27.832 21.973,-47.461 14.356,-19.629 35.742,-30.176 21.387,-10.547 49.219,-10.547 21.973,0 39.844,9.082 17.871,8.7891 35.449,26.074 v -141.5 q 0,-2.9297 1.4649,-5.2734 1.7578,-2.3438 5.8593,-3.8086 4.3946,-1.7578 11.426,-2.6367 7.0313,-0.87891 17.871,-0.87891 10.84,0 17.871,0.87891 7.0313,0.87891 11.133,2.6367 4.1016,1.4648 5.8594,3.8086 1.7578,2.3438 1.7578,5.2734 z m -73.242,-174.61 q -15.82,-19.922 -30.469,-30.469 -14.356,-10.547 -30.176,-10.547 -14.356,0 -24.902,7.3242 -10.254,7.0312 -16.699,19.043 -6.1523,12.012 -9.375,26.953 -2.9297,14.648 -2.9297,30.176 0,16.406 2.6368,31.934 2.6367,15.527 8.4961,27.832 6.1523,12.012 16.113,19.336 9.961,7.3242 25.195,7.3242 7.6171,0 14.648,-2.0508 7.3242,-2.3438 14.648,-7.3242 7.6172,-4.9805 15.527,-12.891 7.9101,-8.2031 17.285,-19.922 z" />
        <path
           id="path30"
           d="m 3334.7,440.5 q 0,2.9297 -1.7578,5.2734 -1.7578,2.0508 -5.8594,3.5156 -4.1015,1.4648 -11.133,2.0508 -7.0312,0.87891 -17.871,0.87891 -11.133,0 -18.164,-0.87891 -7.0313,-0.58593 -11.426,-2.0508 -4.1016,-1.4648 -5.8594,-3.5156 -1.4648,-2.3438 -1.4648,-5.2734 V 285.52 q 0,-13.184 -2.6367,-24.023 -2.3438,-10.84 -7.6172,-18.457 -4.9805,-7.9102 -12.891,-12.012 -7.6171,-4.3945 -18.457,-4.3945 -13.184,0 -26.66,10.254 -13.477,10.254 -29.297,29.883 v 173.73 q 0,2.9297 -1.7578,5.2734 -1.7578,2.0508 -6.1524,3.5156 -4.1015,1.4648 -11.133,2.0508 -7.0312,0.87891 -17.578,0.87891 -10.84,0 -17.871,-0.87891 -7.0313,-0.58593 -11.426,-2.0508 -4.1015,-1.4648 -5.8594,-3.5156 -1.7578,-2.3438 -1.7578,-5.2734 v -154.98 q 0,-13.184 -2.6367,-24.023 -2.3437,-10.84 -7.3242,-18.457 -4.9805,-7.9102 -12.891,-12.012 -7.9102,-4.3945 -18.457,-4.3945 -13.476,0 -26.953,10.254 -13.477,10.254 -29.004,29.883 v 173.73 q 0,2.9297 -1.7578,5.2734 -1.7578,2.0508 -6.1524,3.5156 -4.1015,1.4648 -11.133,2.0508 -7.0312,0.87891 -17.871,0.87891 -10.84,0 -17.871,-0.87891 -7.0312,-0.58593 -11.426,-2.0508 -4.1016,-1.4648 -5.8594,-3.5156 -1.7578,-2.3438 -1.7578,-5.2734 v -261.33 q 0,-2.9297 1.4648,-4.9805 1.4649,-2.3438 5.2735,-3.8086 3.8086,-1.4648 9.6679,-2.0508 6.1524,-0.87891 15.234,-0.87891 9.375,0 15.527,0.87891 6.1524,0.58594 9.375,2.0508 3.5157,1.4648 4.9805,3.8086 1.4649,2.0508 1.4649,4.9805 v 30.176 q 21.68,-23.438 43.066,-35.156 21.68,-11.719 45.117,-11.719 16.113,0 29.004,3.5156 12.891,3.2227 22.852,9.668 10.254,6.1523 17.578,14.941 7.3243,8.7891 12.305,19.629 11.719,-12.598 22.852,-21.68 11.426,-9.082 22.266,-14.648 11.133,-5.8594 21.973,-8.4961 11.133,-2.9297 22.559,-2.9297 26.074,0 43.945,8.7891 17.871,8.7891 28.711,24.023 11.133,14.941 15.82,35.156 4.6875,20.215 4.6875,42.773 z" />
        <path
           id="path32"
           d="m 3481.5,440.5 q 0,2.9297 -1.7578,5.2734 -1.7578,2.0508 -6.1524,3.5156 -4.1015,1.4648 -11.133,2.0508 -7.0312,0.87891 -17.871,0.87891 -10.84,0 -17.871,-0.87891 -7.0312,-0.58593 -11.426,-2.0508 -4.1015,-1.4648 -5.8593,-3.5156 -1.7578,-2.3438 -1.7578,-5.2734 V 179.76 q 0,-2.9297 1.7578,-4.9805 1.7578,-2.3438 5.8593,-3.8086 4.3946,-1.7578 11.426,-2.6367 7.0313,-0.87891 17.871,-0.87891 10.84,0 17.871,0.87891 7.0313,0.87891 11.133,2.6367 4.3946,1.4648 6.1524,3.8086 1.7578,2.0508 1.7578,4.9805 z m 5.5664,-349.8 q 0,22.266 -9.082,30.762 -9.0821,8.4961 -33.692,8.4961 -24.902,0 -33.691,-8.2031 -8.4961,-8.2031 -8.4961,-29.59 0,-22.266 8.7891,-30.762 9.082,-8.7891 33.984,-8.7891 24.609,0 33.398,8.4961 8.7891,8.2031 8.7891,29.59 z" />
        <path
           id="path34"
           d="m 3804.9,440.5 q 0,2.9297 -1.7578,5.2734 -1.7578,2.0508 -5.8594,3.5156 -4.1016,1.4648 -11.426,2.0508 -7.0312,0.87891 -17.578,0.87891 -10.84,0 -18.164,-0.87891 -7.0312,-0.58593 -11.133,-2.0508 -4.1016,-1.4648 -5.8594,-3.5156 -1.7578,-2.3438 -1.7578,-5.2734 V 291.38 q 0,-19.043 -2.9297,-29.883 -2.6367,-10.84 -7.9101,-18.457 -5.2735,-7.9102 -13.77,-12.012 -8.2031,-4.3945 -19.336,-4.3945 -14.062,0 -28.418,10.254 -14.355,10.254 -29.883,29.883 v 173.73 q 0,2.9297 -1.7578,5.2734 -1.7578,2.0508 -6.1523,3.5156 -4.1016,1.4648 -11.133,2.0508 -7.0313,0.87891 -17.871,0.87891 -10.84,0 -17.871,-0.87891 -7.0313,-0.58593 -11.426,-2.0508 -4.1016,-1.4648 -5.8594,-3.5156 -1.7578,-2.3438 -1.7578,-5.2734 v -261.33 q 0,-2.9297 1.4648,-4.9805 1.4649,-2.3438 5.2735,-3.8086 3.8086,-1.4648 9.668,-2.0508 6.1523,-0.87891 15.234,-0.87891 9.375,0 15.527,0.87891 6.1523,0.58594 9.375,2.0508 3.5156,1.4648 4.9804,3.8086 1.4649,2.0508 1.4649,4.9805 v 30.176 q 21.68,-23.438 43.945,-35.156 22.559,-11.719 46.875,-11.719 26.66,0 44.824,8.7891 18.457,8.7891 29.59,24.023 11.426,14.941 16.406,35.156 4.9805,20.215 4.9805,48.633 z" />
      </g>
    </g>
  </g>
</svg>
