<svg xmlns="http://www.w3.org/2000/svg" width="75" height="53" viewBox="0 0 75 53" stroke="currentColor"
    fill="currentColor">
    <path stroke="none"
        d="M37.32 26.12q-6.14 7.52-13.34 13.07a70 70 0 0 1-9.83 6.38H36.5l-.13-.24a9 9 0 0 1-1.1-4.36c0-2.27 1.03-4.04 2.07-5.84 1.39-2.41 2.84-4.93-.02-9.01zm-15.4 10.4c5.06-3.91 9.8-8.67 14.05-14.16l.18-.2.03-.02c.35-.31.8-.45 1.23-.42h.06l.19.03.04.01.12.03.08.03h.02l.07.03a68 68 0 0 1 16.9 9.62 83 83 0 0 1 14.65 14.75q.33.45.35 1.04c0 .93-.76 1.69-1.69 1.69H6.42v-.01a1.68 1.68 0 0 1-.6-3.26 64 64 0 0 0 16.1-9.17zm18.96 9.05h23.78a78 78 0 0 0-11.84-11.42 67 67 0 0 0-10.96-6.9c1.62 4-.01 6.84-1.6 9.58-.8 1.4-1.6 2.76-1.6 4.14a5.8 5.8 0 0 0 2.23 4.6M11.38 3.69a7.64 7.64 0 0 1 5.41 13.06l-.05.05-.04.04a7.67 7.67 0 0 1-10.72-.09 7.65 7.65 0 0 1-.01-10.82l.06-.05.01-.01.02-.02a7.7 7.7 0 0 1 5.32-2.16zm3.02 4.64a4.26 4.26 0 0 0-6-.04l-.03.03a4.3 4.3 0 0 0 0 6.04 4.27 4.27 0 0 0 6 .03l.03-.03a4.3 4.3 0 0 0 0-6.03" />
</svg>